<?xml version="1.0" encoding="UTF-8" standalone="no"?>
<!-- Created with Inkscape (http://www.inkscape.org/) -->

<svg
   xmlns:dc="http://purl.org/dc/elements/1.1/"
   xmlns:cc="http://creativecommons.org/ns#"
   xmlns:rdf="http://www.w3.org/1999/02/22-rdf-syntax-ns#"
   xmlns:svg="http://www.w3.org/2000/svg"
   xmlns="http://www.w3.org/2000/svg"
   xmlns:sodipodi="http://sodipodi.sourceforge.net/DTD/sodipodi-0.dtd"
   xmlns:inkscape="http://www.inkscape.org/namespaces/inkscape"
   id="svg2"
   version="1.1"
   inkscape:version="0.48.5 r10040"
   width="776.11505"
   height="367.23462"
   sodipodi:docname="logoDSI.png">
  <metadata
     id="metadata8">
    <rdf:RDF>
      <cc:Work
         rdf:about="">
        <dc:format>image/svg+xml</dc:format>
        <dc:type
           rdf:resource="http://purl.org/dc/dcmitype/StillImage" />
        <dc:title></dc:title>
      </cc:Work>
    </rdf:RDF>
  </metadata>
  <defs
     id="defs6" />
  <sodipodi:namedview
     pagecolor="#ffffff"
     bordercolor="#666666"
     borderopacity="1"
     objecttolerance="10"
     gridtolerance="10"
     guidetolerance="10"
     inkscape:pageopacity="0"
     inkscape:pageshadow="2"
     inkscape:window-width="1366"
     inkscape:window-height="702"
     id="namedview4"
     showgrid="false"
     fit-margin-top="0"
     fit-margin-left="0"
     fit-margin-right="0"
     fit-margin-bottom="0"
     inkscape:zoom="0.50902062"
     inkscape:cx="388.11504"
     inkscape:cy="183.55071"
     inkscape:window-x="0"
     inkscape:window-y="27"
     inkscape:window-maximized="1"
     inkscape:current-layer="svg2" />
  <g
     id="g2987"
     transform="translate(0.11503549,0.18390668)">
    <path
       style="fill:#fdfdfd"
       d="M 0,183.5 0,0 388,0 776,0 776,183.5 776,367 388,367 0,367 0,183.5 z"
       id="path3003"
       inkscape:connector-curvature="0" />
    <path
       style="fill:#d0d0d0"
       d="M 388.5,365.49829 C 366.51693,361.30707 350.912,345.68205 344.05891,321 c -1.75889,-6.3348 -4.0203,-24.02168 -4.05036,-31.67857 -0.0184,-4.69561 1.25747,-4.95543 27.78544,-5.65805 13.73681,-0.36384 29.64027,-1.19541 35.34102,-1.84795 5.70074,-0.65253 12.38999,-1.21545 14.86499,-1.25092 l 4.5,-0.0645 0.62377,14.02313 c 0.34308,7.71272 0.95302,16.03772 1.35544,18.5 1.13649,6.95389 6.34197,15.84673 13.49409,23.05281 C 448.25476,346.43497 457.88626,350 475.59138,350 c 24.50187,0 47.88493,-10.26274 65.57812,-28.78199 8.58432,-8.98511 13.97805,-17.90809 17.56084,-29.05136 5.86455,-18.24005 -0.67196,-37.57985 -16.10882,-47.66171 -11.91023,-7.77861 -30.04408,-10.46232 -71.12152,-10.52557 -9.9,-0.0152 -28.59932,-0.45587 -41.55405,-0.97918 -27.01332,-1.09119 -34.22243,-2.59843 -50.80391,-10.62176 -12.11049,-5.85994 -23.08593,-16.29519 -28.22923,-26.83984 -3.10289,-6.36147 -3.42759,-7.89846 -3.76768,-17.83435 -0.60364,-17.63597 3.15845,-30.88045 13.45226,-47.35879 C 373.21553,110.14629 392.0311,95.839721 416,88.219616 c 18.97926,-6.033815 32.30136,-7.21346 104.68594,-9.269723 50.27129,-1.42808 59.43647,-0.481378 77.81406,8.037678 15.25971,7.073739 25.60922,16.903709 32.12509,30.512429 4.24218,8.86 7.58009,21.96358 7.18198,28.19422 L 637.5,150.5 l -5,0.66239 c -2.75,0.36432 -10.85,0.70577 -18,0.75878 -16.99361,0.126 -38.6158,1.71466 -50.1909,3.6877 -5.08834,0.86734 -9.82698,1.38505 -10.53032,1.15047 -0.97598,-0.32553 -1.19574,-3.53003 -0.9281,-13.53315 0.33073,-12.36137 0.20371,-13.42764 -2.234,-18.7523 -5.08078,-11.09788 -13.29316,-18.3119 -26.6016,-23.36771 -5.90871,-2.244681 -8.00424,-2.481142 -22.51508,-2.54061 -18.31897,-0.07507 -23.85615,1.024474 -37.20573,7.38815 -26.34363,12.55788 -39.65273,29.48237 -39.74862,50.54628 -0.0308,6.76338 0.39256,8.87499 2.73875,13.66054 5.67675,11.57895 18.1592,18.90531 40.06493,23.51541 7.02439,1.4783 14.78341,1.72284 56.15067,1.76969 45.65168,0.0517 48.44322,0.16023 57.0594,2.21842 25.80325,6.16373 41.50937,16.5907 49.46065,32.83594 4.3275,8.84152 6.08264,16.60785 6.69649,29.63139 1.59193,33.7749 -10.74964,61.46072 -37.80855,84.8158 -12.525,10.81057 -30.81828,18.54112 -47.90799,20.24541 -5.225,0.52107 -42.35,1.1033 -82.5,1.29384 -57.86017,0.2746 -74.45176,0.0697 -80,-0.98815 z M 121.50355,363.51954 C 90.622714,354.63151 70.94856,326.91812 64.966067,283.87976 63.44009,272.9018 63.428574,233.2254 64.947671,220.5 68.683864,189.20211 79.347541,149.47114 90.955663,123.59882 92.630048,119.86693 94,116.4478 94,116.00075 94,115.5537 73.6375,115.00437 48.75,114.78002 23.8625,114.55567 2.7393834,114.02556 1.8097409,113.60199 0.3848519,112.95278 0.30110169,112.41332 1.2762988,110.16594 2.6325886,107.04031 23.173987,82.69197 26.304468,80.499296 28.125525,79.223778 34.812776,79 71.10854,79 l 42.66353,0 4.23564,-7.129636 C 124.62519,60.731496 139.03631,42.1643 149.74063,30.985873 L 159.5,20.794255 192,18.438019 c 48.04217,-3.483036 59.55938,-3.959975 60.45942,-2.503685 0.48874,0.790803 -7.33079,9.342342 -22.30379,24.391698 C 217.47462,53.071714 204.29797,66.875 200.8742,71 l -6.22505,7.5 29.92543,0.296157 c 16.45898,0.162886 45.01711,-0.157541 63.4625,-0.712059 18.4454,-0.554519 34.5329,-0.747805 35.75,-0.429526 1.27865,0.334375 2.21292,1.360318 2.21292,2.430064 0,2.109043 -15.97962,23.668914 -21.3652,28.826164 l -3.56182,3.41079 -37.78649,0.77388 c -20.78257,0.42564 -50.16149,0.81017 -65.28649,0.85452 -15.125,0.0443 -28.03075,0.41818 -28.67945,0.83074 -0.64871,0.41256 -4.3037,7.49317 -8.12222,15.73469 -22.26391,48.05231 -29.15621,77.66691 -27.89937,119.87707 1.14823,38.5624 9.6832,59.50354 30.22659,74.163 12.80365,9.13649 25.22994,13.20843 42.97445,14.0822 29.24537,1.4401 46.84535,-5.59903 78.84822,-31.53543 6.51652,-5.28124 15.05773,-12.19269 18.98046,-15.35877 11.04232,-8.91237 11.77978,-7.1491 5.13193,12.27048 -6.71455,19.61442 -17.47952,49.05449 -19.08704,52.19928 -2.52978,4.94904 -8.1918,5.53183 -66.87357,6.88333 -83.81936,1.93044 -96.57504,1.98334 -101.99645,0.42296 z m 570.12745,-0.8001 c -1.65369,-1.2092 -1.66474,-2.08675 -0.19827,-15.75 0.85415,-7.95819 2.00185,-22.11944 2.55046,-31.46944 1.34242,-22.87915 1.31439,-147.36142 -0.0362,-160.64405 C 690.91165,125.00339 684.80809,110.55306 668.922,95.608567 661.02401,88.178702 659.26645,85.058844 660.41064,80.5 l 0.62746,-2.5 21.73095,-0.01338 c 11.95202,-0.0074 36.23429,-0.671749 53.9606,-1.476423 17.72631,-0.804674 32.91381,-1.200508 33.75,-0.879632 2.10191,0.806578 1.94247,2.592075 -1.38877,15.551853 -1.60001,6.22467 -3.40842,16.267582 -4.01868,22.317582 -1.97155,19.54573 -3.29205,115.82709 -2.14317,156.26477 1.33144,46.863 2.00894,51.50613 12.0826,82.80623 0.5436,1.68905 0.98837,3.56665 0.98837,4.17245 0,2.19904 -6.92157,3.1077 -28.5,3.74145 -12.1,0.35537 -28.75,1.28635 -37,2.06884 -18.22953,1.72903 -16.74881,1.71603 -18.869,0.1657 z M 712.11428,56.45562 c -8.77276,-1.903245 -19.41256,-6.211948 -23.08024,-9.346594 -2.26786,-1.938265 -3.29674,-3.937737 -4.00197,-7.777249 -1.06558,-5.801356 0.15512,-20.206192 2.51366,-29.662544 C 688.34558,6.4623112 689,3.6558502 689,3.4326531 c 0,-0.2231972 1.62996,-1.0868521 3.62212,-1.9192331 5.93334,-2.47910694 28.74604,-1.61280549 43.87788,1.666242 7.47272,1.6193269 17.09415,6.2712941 19.00625,9.189538 1.95847,2.989003 1.59675,7.623797 -1.72693,22.127244 -3.36315,14.675669 -6.41593,19.906533 -13.09442,22.436944 -3.9005,1.477861 -20.86395,1.194193 -28.57062,-0.477768 z"
       id="path3001"
       inkscape:connector-curvature="0" />
    <path
       style="fill:#afafaf"
       d="m 389,365.42166 c -28.39315,-6.2664 -45.50588,-30.31129 -47.63688,-66.934 -0.5112,-8.78544 -0.35993,-11.2315 0.74805,-12.09614 0.84054,-0.65594 12.83769,-1.53168 30.38883,-2.21826 15.95,-0.62394 33.38101,-1.67467 38.73557,-2.33494 5.35457,-0.66028 10.00602,-0.93007 10.33655,-0.59953 0.33054,0.33053 0.94563,8.27762 1.36686,17.6602 0.74027,16.48848 0.87435,17.27953 4.00771,23.64429 1.783,3.62178 5.94165,9.47119 9.24145,12.99869 10.91189,11.66484 24.46256,16.29722 44.31186,15.14828 38.87048,-2.24995 74.83318,-31.43836 80.66963,-65.47389 2.91539,-17.00123 -5.86937,-34.98072 -21.04309,-43.06823 C 528.44688,235.92294 522.0342,234.9476 486,233.91576 c -76.36322,-2.18666 -79.38834,-2.38497 -90.5,-5.93276 -21.89691,-6.99135 -36.39292,-17.7859 -43.5829,-32.45428 -3.25347,-6.63745 -3.4327,-7.57426 -3.74286,-19.56329 -0.38055,-14.71009 0.90024,-20.9951 6.89258,-33.8228 15.49285,-33.16524 44.57253,-53.163031 85.16858,-58.569531 21.89578,-2.916035 119.46287,-5.570891 132.24286,-3.598403 21.40539,3.303747 40.31114,13.211081 50.39186,26.407264 7.35508,9.62816 12.77471,23.27799 14.59257,36.75264 0.98482,7.2999 -0.1065,7.86254 -15.28412,7.87992 -18.1025,0.0207 -45.2447,1.73511 -55.17857,3.48523 -4.675,0.82364 -9.64106,1.49813 -11.03568,1.49888 l -2.53568,0.001 0.0357,-13.75 c 0.0334,-12.87327 -0.13572,-14.11573 -2.65249,-19.48579 -5.88675,-12.56065 -20.76636,-22.41558 -37.41208,-24.778441 -10.22097,-1.450868 -24.92888,-0.78162 -33.83825,1.539728 -22.60442,5.889603 -43.14116,20.751613 -51.19599,37.049453 -3.37949,6.83793 -3.82643,8.64489 -4.18906,16.93631 -0.5104,11.66982 1.2595,17.53283 7.33144,24.28629 5.1057,5.67877 12.82199,10.0166 23.99211,13.48753 16.87686,5.24421 21.88436,5.54473 80,4.8012 28.31148,-0.36221 31.86726,-0.2183 41,1.65944 28.01504,5.76004 44.38445,16.08525 52.88782,33.35966 5.46405,11.10012 6.88433,19.49935 6.32327,37.39462 -0.63623,20.29268 -3.94413,32.32403 -13.33457,48.5 -7.34264,12.64841 -25.42264,30.54796 -37.19235,36.82116 -9.20781,4.90771 -26.02954,10.11708 -36.399,11.27208 -5.17969,0.57694 -41.12032,1.19534 -81.28517,1.3986 -59.85111,0.3029 -73.09677,0.12232 -78.5,-1.07018 z M 127.06869,363.98794 C 96.99857,357.57158 77.838894,336.28038 68.586863,299 c -4.221645,-17.01081 -5.647272,-45.1164 -3.57604,-70.5 2.619629,-32.10437 13.446663,-74.69953 26.58027,-104.57075 1.926753,-4.38223 3.230416,-8.40904 2.89703,-8.94847 C 94.106351,114.36306 77.091034,114 48.52277,114 23.575213,114 2.4873073,113.74049 1.660758,113.42332 -0.55557874,112.57283 1.9891246,108.85205 15.286668,93.5 L 26.546926,80.5 70.239598,80 113.93227,79.5 120.8054,69 c 9.72814,-14.861582 20.19485,-28.041672 30.66677,-38.616817 L 160.5,21.266366 201,18.607494 c 22.275,-1.46238 42.3,-2.871484 44.5,-3.131342 8.84806,-1.045109 8.05674,0.184408 -14.67909,22.807722 -22.76498,22.652316 -37.31224,39.112124 -36.18272,40.939717 0.49042,0.793524 15.14593,0.856711 52.7704,0.22752 76.4198,-1.277963 76.99846,-1.272759 77.37955,0.695849 0.33999,1.756304 -15.44864,23.33137 -20.74876,28.35304 l -3.16634,3 -26.68652,0.63343 c -14.67759,0.34838 -39.51152,0.68793 -55.18652,0.75454 -15.675,0.0666 -33.56655,0.41307 -39.759,0.76988 l -11.25901,0.64876 -4.59177,9.59669 c -23.85513,49.85663 -32.6017,85.50145 -31.06443,126.5967 1.25728,33.61073 7.56556,52.41695 22.6538,67.53553 5.72198,5.73348 9.7268,8.67128 16.74675,12.28486 13.92835,7.16973 21.64913,8.88386 40.27366,8.94136 18.3804,0.0567 23.75898,-1.083 38.63016,-8.18597 14.72302,-7.03219 19.01649,-10.03839 46.1867,-32.33887 7.88248,-6.46969 14.74833,-11.50564 15.25746,-11.19098 0.50912,0.31466 0.92568,1.26961 0.92568,2.12213 0,2.98742 -20.06147,59.68256 -23.40953,66.15699 -1.06687,2.06309 -2.5222,3.12716 -4.88272,3.57 -6.70606,1.25806 -33.67553,2.56517 -54.20775,2.62724 -11.55,0.0349 -29.775,0.47969 -40.5,0.98839 -33.20623,1.57499 -58.30356,1.96473 -62.93131,0.97726 z m 565.06808,-1.8147 c -1.1479,-0.78414 -1.10879,-3.43823 0.2476,-16.80224 3.03866,-29.9389 3.80058,-58.43719 3.35412,-125.4547 -0.46371,-69.60596 -0.73883,-73.98621 -5.77225,-91.89997 C 686.42366,115.40838 681.68264,107.63078 670.75475,96.5 661.72007,87.297588 660.95948,86.220844 661.21851,83 l 0.28149,-3.5 27,-0.632288 c 14.85,-0.347758 39.00821,-1.179916 53.68492,-1.849241 14.6767,-0.669324 27.1642,-0.920737 27.75,-0.558695 1.5667,0.968276 1.31074,4.195764 -0.95512,12.043406 -5.50856,19.078498 -6.90935,46.424988 -6.94062,135.496818 -0.0286,81.5742 1.10761,95.23501 10.08419,121.23931 3.189,9.23821 3.84431,12.16263 2.86157,12.77 -0.70106,0.43328 -9.19697,1.04981 -18.8798,1.37007 -15.76818,0.52153 -37.83442,1.78655 -56.10514,3.21641 -3.575,0.27977 -7.11346,0.0896 -7.86323,-0.42255 z M 709,54.980022 c -9.45643,-2.50488 -19.58825,-7.421984 -21.59084,-10.478312 -2.42694,-3.703982 -2.77432,-12.084046 -1.00193,-24.169874 2.06127,-14.0555869 3.11055,-17.0311089 6.65153,-18.8622206 9.46613,-4.8951277 51.77374,1.9008003 60.06801,9.6488046 3.50161,3.270996 3.60097,5.49635 0.84843,19.003258 -2.65205,13.013832 -5.28546,19.842676 -9.04074,23.443992 -3.02305,2.899115 -3.21204,2.93713 -15.74712,3.167665 C 719.15559,56.91783 714.93018,56.550845 709,54.980022 z"
       id="path2999"
       inkscape:connector-curvature="0" />
    <path
       style="fill:#8f8f8f"
       d="m 389,364.90998 c -11.89869,-3.0439 -19.58672,-7.32408 -27.5304,-15.32708 -12.47231,-12.56545 -18.25897,-27.70742 -19.19769,-50.23464 l -0.54804,-13.15174 7.38807,-0.56138 c 4.06343,-0.30875 16.26985,-0.80036 27.12536,-1.09245 10.85552,-0.29209 24.13052,-1.05992 29.5,-1.7063 5.36949,-0.64637 11.1127,-1.21149 12.7627,-1.25581 l 3,-0.0806 0.64747,16 c 0.75301,18.60808 2.23137,23.81492 9.51144,33.49956 10.84832,14.43145 23.70705,20.31601 44.34109,20.29187 36.73213,-0.043 73.28044,-25.31347 83.5973,-57.80147 6.76264,-21.29567 -1.50754,-42.77111 -20.11747,-52.23972 -12.96009,-6.59401 -22.82125,-7.58978 -90.97983,-9.18709 -43.88428,-1.02844 -46.86862,-1.41202 -62.89549,-8.08402 -16.18722,-6.73875 -27.13658,-16.20667 -33.40099,-28.88184 C 348.50409,187.612 348.5,187.58932 348.5,174.55186 c 0,-14.8762 1.7247,-22.07646 8.53028,-35.61208 15.25394,-30.33858 44.0936,-49.53887 82.41553,-54.868961 17.0712,-2.374385 112.0751,-5.320459 128.06524,-3.971307 28.8893,2.437504 50.85992,15.788849 61.54524,37.400488 6.22985,12.6002 10.04181,30.82502 6.69371,32.0023 -0.6875,0.24175 -13.6554,0.90776 -28.81756,1.48004 -18.26486,0.68938 -31.73728,1.72077 -39.92409,3.05641 -7.96314,1.29914 -12.57529,1.66196 -12.97178,1.02043 -0.33838,-0.54751 -0.30069,-4.65563 0.0838,-9.12915 1.37721,-16.02577 -1.84171,-25.59339 -11.76959,-34.98276 -6.02762,-5.70067 -17.17429,-11.412454 -25.23722,-12.932077 -7.73661,-1.458121 -27.48713,-1.21921 -35.25105,0.426411 -20.98713,4.448386 -45.67097,21.379976 -53.39739,36.627316 -5.19708,10.25596 -6.77718,22.2534 -4.10168,31.14342 4.15425,13.80353 16.52084,22.46807 40.13661,28.12137 8.56615,2.05062 11.33796,2.15563 57.5,2.17842 42.64499,0.021 49.40541,0.23554 56,1.77673 33.07862,7.73064 48.91268,20.72568 55.69765,45.71114 2.75094,10.13027 2.44795,33.68748 -0.58349,45.36521 -5.40064,20.8044 -13.00845,33.51396 -29.76644,49.72758 -9.72046,9.40471 -16.44271,13.8982 -27.59121,18.4434 -20.11816,8.20209 -36.52578,9.43645 -124.25651,9.34793 -50.84185,-0.0513 -55.56702,-0.20056 -62.5,-1.97414 z M 130.46978,364.02 C 105.16149,360.44983 85.191227,343.51007 74.535348,316.57364 70.831587,307.2111 67.196575,292.525 66.001302,282.09456 64.461493,268.65758 64.770047,231.86878 66.536347,218.30122 70.842903,185.22105 80.129487,151.23333 92.575834,123 c 1.81846,-4.125 2.995313,-7.81133 2.615228,-8.19184 -0.380084,-0.38052 -21.979445,-1.05552 -47.99858,-1.5 L -0.11503549,112.5 13.168475,96.75 26.451986,81 69.475993,80.984687 c 23.663204,-0.0084 43.494177,-0.345922 44.068817,-0.75 C 114.11946,79.830609 117.97563,74.325 122.11408,68 131.27696,53.995913 143.3303,38.967236 153.20043,29.240043 l 7.36665,-7.259956 41.46646,-2.980271 C 247.59368,15.725324 251,15.579725 251,16.906799 c 0,0.498739 -10.50235,11.411239 -23.33855,24.25 -21.55834,21.562646 -35.61653,37.221458 -34.45738,38.380606 0.89122,0.891215 45.11939,0.935513 87.91939,0.08806 27.72015,-0.548868 42.83549,-0.500906 43.22984,0.137172 1.06165,1.717779 -18.91918,28.242193 -23.04273,30.589073 -0.82307,0.46844 -30.81716,1.30459 -66.65353,1.8581 -58.2848,0.90023 -65.32269,1.17955 -66.7276,2.64828 -2.11964,2.21594 -12.87215,25.26746 -18.50034,39.66152 -12.71382,32.51558 -17.50665,56.59209 -17.52091,88.01532 -0.0228,50.25377 11.93607,75.09214 43.3334,90.00267 11.28596,5.35967 16.72839,6.54784 32.81539,7.16411 11.42967,0.43785 16.37082,0.19394 23,-1.13532 9.35301,-1.87544 24.51997,-8.60214 35.6165,-15.79629 5.41116,-3.50817 33.82397,-25.8997 42.60015,-33.57225 4.16148,-3.63816 3.7422,0.47068 -1.67009,16.36676 -7.59414,22.30424 -17.4986,48.90962 -18.94317,50.88518 -2.14483,2.93323 -8.4415,3.54583 -46.66037,4.53961 -32.766,0.85199 -68.92843,2.14885 -97,3.47861 -4.675,0.22146 -11.2136,0.0199 -14.53022,-0.44801 z m 561.05864,-2.97401 c -0.32428,-0.52471 -0.34596,-1.98721 -0.0482,-3.25 3.39901,-14.41347 5.96106,-89.17669 5.16761,-150.79599 -0.7761,-60.27251 -2.37717,-73.22349 -11.37349,-92 -3.96673,-8.2791 -5.7573,-10.68533 -13.93269,-18.723242 -9.51205,-9.352099 -12.00928,-13.693794 -9.17789,-15.956713 0.8563,-0.684377 14.0862,-1.289883 36.8362,-1.685919 19.525,-0.339894 43.42185,-0.90988 53.1041,-1.266635 11.92478,-0.439383 17.81412,-0.308835 18.25508,0.404657 0.35804,0.579316 -0.65877,6.155076 -2.25958,12.390577 -1.6008,6.235501 -3.40775,15.387275 -4.01545,20.337275 -1.78542,14.54312 -3.37417,97.62952 -2.71529,142 0.87135,58.67841 2.09361,69.64242 10.29552,92.35378 2.45377,6.79457 4.23685,12.57832 3.9624,12.85277 -0.27445,0.27445 -12.11525,0.89439 -26.31289,1.37765 -14.19764,0.48325 -30.08889,1.3292 -35.31389,1.87989 -12.07789,1.27295 -21.71376,1.30807 -22.47158,0.0819 z M 719,56.417068 c -14.59124,-2.44823 -26.65645,-7.031636 -30.48404,-11.580465 -2.23977,-2.661818 -2.51554,-3.887281 -2.51215,-11.163328 0.004,-9.348603 2.18707,-24.2133437 4.15949,-28.3269691 1.93149,-4.028256 5.32364,-5.31488772 14.05643,-5.3315641 16.05499,-0.03065905 39.95764,5.1271207 47.00013,10.1418152 4.2093,2.997283 4.74494,5.344665 3.28196,14.382859 -2.93419,18.127343 -6.61262,27.406038 -11.99106,30.246954 -2.94809,1.557197 -17.80663,2.58778 -23.51076,1.630698 z"
       id="path2997"
       inkscape:connector-curvature="0" />
    <path
       style="fill:#6f6f6f"
       d="m 390.11197,364.95505 c -22.19038,-5.81135 -35.81335,-18.37173 -43.28303,-39.90695 -3.97535,-11.46102 -6.40703,-37.61953 -3.57894,-38.50005 0.6875,-0.21406 13.85,-0.85985 29.25,-1.4351 15.4,-0.57525 32.37325,-1.60024 37.71834,-2.27776 5.34508,-0.67752 10.07008,-0.88028 10.5,-0.45058 0.42991,0.4297 1.07449,7.83145 1.4324,16.44833 0.74088,17.83731 1.38118,20.59301 6.68557,28.77336 8.67454,13.37772 20.22624,21.07 35.121,23.38706 43.17693,6.7167 91.52173,-25.67744 98.14141,-65.76108 2.85184,-17.26855 -6.3724,-35.76956 -21.98214,-44.08946 -11.84256,-6.31202 -17.83008,-7.18181 -56.61658,-8.22456 -19.25,-0.51752 -44.675,-1.35114 -56.5,-1.85248 -24.93262,-1.05707 -30.58195,-2.28252 -46.79896,-10.15165 -18.05009,-8.75861 -29.011,-22.21332 -31.25818,-38.36996 -1.36037,-9.78072 0.12725,-23.0274 3.63191,-32.34067 C 366.83414,112.31065 397.78632,89.563928 442.5,84.117538 464.44462,81.444555 559.35959,79.100516 572,80.91938 c 17.9277,2.579667 33.15654,9.451106 44.39429,20.03125 10.1388,9.54549 15.97243,20.8776 19.19765,37.29235 2.309,11.75169 2.3091,11.75159 -11.96438,11.77621 -16.92953,0.0292 -46.02277,1.83362 -56.36679,3.49599 -14.1897,2.2804 -12.81333,3.5481 -12.78515,-11.7757 0.0237,-12.91486 -0.0589,-13.42967 -3.16982,-19.75 -5.26835,-10.7034 -15.70522,-18.85 -29.8058,-23.265199 -10.00683,-3.133353 -31.50265,-3.085353 -42.7885,0.09555 -27.3376,7.705049 -49.10303,25.949729 -54.31657,45.530359 -1.8506,6.95034 -1.75123,18.24786 0.21117,24.00717 3.18444,9.34584 13.52527,18.0194 27.10119,22.73164 17.0362,5.91331 30.94773,7.11502 67.28522,5.81223 45.39841,-1.62764 64.84761,0.80264 84.67066,10.58002 19.43315,9.58508 29.17969,24.64683 31.23498,48.26875 2.0146,23.15431 -3.60865,46.51605 -15.50324,64.40808 -5.71299,8.59356 -20.96368,24.05292 -29.06524,29.46294 -8.07135,5.38984 -21.82409,10.80754 -33.98895,13.38949 -13.14768,2.79054 -44.29292,3.90367 -108.84072,3.88998 -46.20605,-0.01 -50.5606,-0.15743 -57.38803,-1.94544 z M 123.28018,362.15607 C 94.209839,354.69987 76.468796,332.22925 67.890435,292 c -2.017022,-9.45907 -2.240961,-13.32538 -2.258904,-39 -0.01728,-24.72677 0.272684,-30.28732 2.190162,-42 4.924611,-30.08139 13.469136,-60.57245 23.645037,-84.37711 2.557332,-5.98241 4.4143,-11.49054 4.126596,-12.24028 -0.42951,-1.11929 -9.014565,-1.40964 -47.985161,-1.62289 L 0.14610225,112.5 13.647449,96.75 27.148795,81 l 43.358828,0 43.358827,0 8.48438,-12.75 C 135.62041,48.308976 156.71236,23.551719 161.31845,22.51069 162.5183,22.239509 180.15,20.898767 200.5,19.531263 c 20.35,-1.367504 39.8125,-2.734004 43.25,-3.036667 3.93385,-0.346365 6.25,-0.173061 6.25,0.467651 0,0.55987 -9.56969,10.584903 -21.26597,22.277849 -23.86419,23.857374 -36.25498,37.959952 -35.37262,40.259343 0.73267,1.9093 28.50424,2.030902 88.43229,0.387212 22.71153,-0.622926 41.59179,-0.834491 41.95614,-0.470144 0.36435,0.364346 -0.12363,2.107183 -1.08438,3.87297 -2.99528,5.505069 -19.60685,25.730513 -21.94331,26.717113 -1.22218,0.51609 -31.4231,1.37418 -67.11314,1.90687 -35.69005,0.53269 -65.26792,1.34545 -65.72859,1.80612 -2.27434,2.27434 -16.26368,33.20128 -22.0651,48.78042 -18.06141,48.50212 -19.60662,106.95727 -3.68756,139.5 3.30737,6.76113 5.84295,10.17204 12.39452,16.67335 6.93658,6.88336 9.87331,8.96978 18.60713,13.21956 14.06608,6.84439 20.00019,8.07753 38.87059,8.07753 18.67286,0 24.64507,-1.21923 38.59312,-7.87877 13.10897,-6.25893 21.13461,-11.75927 42.25815,-28.96146 C 302.39446,295.35859 310.66321,289 311.22627,289 c 1.61996,0 0.4713,3.97216 -8.24616,28.51582 -11.9009,33.50654 -13.89107,38.38079 -16.31548,39.95941 -2.84246,1.85083 -27.95379,3.50907 -54.14756,3.57566 -11.00939,0.028 -29.24207,0.46321 -40.51707,0.96714 -47.15814,2.10774 -60.93245,2.13541 -68.71982,0.13804 z m 569.11745,-1.56226 c -0.29679,-0.7734 0.16372,-8.3109 1.02334,-16.75 2.62665,-25.78621 3.56805,-55.85136 3.56469,-113.84381 -0.003,-59.20988 -0.79067,-77.31004 -4.06206,-93.39496 -3.78493,-18.60993 -9.09895,-28.55144 -22.16444,-41.465507 -7.40888,-7.323008 -8.74224,-9.134781 -8.75,-11.889533 -0.006,-1.957763 0.48785,-3.235281 1.24084,-3.212982 6.92126,0.20497 58.90461,-1.180005 79.52764,-2.118828 14.45271,-0.657931 26.58,-0.893884 26.94954,-0.524341 0.36955,0.369543 0.13185,3.019604 -0.5282,5.889024 C 768.53893,86.152293 767.1164,92.325 766.03782,97 c -3.76129,16.30282 -4.40611,33.52786 -4.47352,119.5 -0.0688,87.77788 0.22349,94.44331 4.96957,113.31607 1.33941,5.32616 4.06721,13.64645 6.06178,18.48953 1.99456,4.84308 3.45851,8.97358 3.2532,9.17888 -0.2053,0.20531 -13.64278,0.86836 -29.86107,1.47346 -16.21828,0.6051 -32.86278,1.51734 -36.98778,2.02721 -11.07908,1.36941 -15.97096,1.25411 -16.60237,-0.39134 z M 713.5,55.35743 c -6.09409,-1.476818 -15.61643,-4.932162 -19.902,-7.221785 -7.91813,-4.23037 -9.03463,-9.583895 -6.08892,-29.196066 1.87099,-12.4568703 3.52637,-16.611451 7.19255,-18.0514199 3.65883,-1.43708414 22.40939,-0.52844814 32.29837,1.565151 11.39749,2.4129682 22.52407,6.3762727 25.41039,9.0512189 3.18502,2.951776 3.28811,5.880561 0.65709,18.667535 -2.48697,12.086831 -5.43095,19.880581 -8.65518,22.913226 -2.42315,2.279167 -3.30665,2.424311 -15.73978,2.585761 C 721.42764,55.765129 714.6,55.623999 713.5,55.35743 z"
       id="path2995"
       inkscape:connector-curvature="0" />
    <path
       style="fill:#4f4f4f"
       d="m 388.5,364.23267 c -12.30527,-3.853 -18.80202,-7.58358 -26.52742,-15.23267 -7.72047,-7.6442 -13.10099,-17.27891 -16.0273,-28.69952 -2.44685,-9.54941 -4.38786,-31.06228 -2.95805,-32.78509 0.69199,-0.8338 8.4684,-1.38689 25.75206,-1.83159 13.61839,-0.35039 29.48571,-1.18201 35.26071,-1.84803 5.775,-0.66602 11.85,-1.23904 13.5,-1.27336 l 3,-0.0624 0.70746,14.84777 c 0.82517,17.31799 2.27865,23.15726 7.83554,31.47877 10.82668,16.21308 24.75114,23.12691 46.64162,23.15868 25.70409,0.0373 49.57404,-10.60982 68.03849,-30.34838 15.70758,-16.79145 22.69894,-38.84836 17.50971,-55.24102 -3.81273,-12.04432 -12.27587,-21.78545 -23.30269,-26.82155 -12.8624,-5.87443 -20.43053,-6.55074 -94.93013,-8.48313 -33.80055,-0.87673 -35.93085,-1.04523 -44.5,-3.51986 -22.16581,-6.40112 -38.0193,-17.74963 -45.25891,-32.39798 -3.52548,-7.13331 -3.75879,-8.19797 -4.08035,-18.61961 -0.42853,-13.8881 1.26936,-21.5991 7.71848,-35.05369 14.88944,-31.06339 40.55681,-49.377104 78.40572,-55.94261 16.97922,-2.945322 118.93658,-6.455965 133.81199,-4.607478 29.30518,3.641598 51.02641,17.563681 60.5259,38.793678 3.13623,7.00902 6.37717,19.63875 6.37717,24.85142 l 0,4.21834 -9.25,0.56091 c -5.0875,0.3085 -17.35,0.8134 -27.25,1.122 -9.9,0.3086 -22.725,1.27002 -28.5,2.13649 -5.775,0.86647 -11.76851,1.64107 -13.31891,1.72133 L 554.86217,154.5 554.68109,141 c -0.16924,-12.61667 -0.36689,-13.87838 -3.02071,-19.28285 -5.87371,-11.96173 -20.67672,-22.18927 -35.81276,-24.743379 -9.10215,-1.535929 -30.02336,-0.715591 -38.04087,1.491614 -21.00261,5.781975 -43.8194,22.784405 -50.90413,37.932325 -1.56974,3.35626 -3.38948,9.54997 -4.04387,13.7638 -3.28005,21.1211 9.23037,36.62431 34.92761,43.28313 14.97102,3.87938 16.19295,3.95427 65.71364,4.02747 l 49,0.0724 10.45812,2.7627 c 28.38268,7.49781 43.49099,20.50431 49.68465,42.77273 2.53325,9.10796 2.54672,34.43013 0.0239,44.92004 -5.0682,21.07358 -13.79382,35.45954 -31.77312,52.3845 -14.07692,13.25142 -30.30045,20.29707 -55.41697,24.06682 -9.08738,1.36393 -22.76624,1.7294 -79.47658,2.12345 l -68.5,0.47596 -9,-2.81806 z m -261,-1.64383 C 101.59106,357.52223 84.165631,341.13153 74.017041,312.28173 67.007517,292.35547 66.502136,288.36934 66.501006,253 66.5001,224.61608 66.731671,220.11508 68.841927,207.5 73.553239,179.33586 82.772216,147.26141 92.543954,125.03647 98.383525,111.75488 101.8127,113.03882 59.75,112.75792 39.8125,112.62478 18.436991,112.51228 12.248868,112.50792 2.3901188,112.50098 -0.84219529,111.98542 1.75,110.83333 2.1625,110.65 7.5993827,104.53718 13.831962,97.249296 20.06454,89.961409 26.127168,83.323909 27.304468,82.499296 29.125604,81.223723 35.817403,81 72.150103,81 l 42.705087,0 3.76614,-6.25 c 9.0184,-14.966262 24.02438,-34.141437 35.71511,-45.638029 l 6.4959,-6.388029 40.33383,-2.882721 c 22.18361,-1.585496 42.26179,-2.760883 44.61819,-2.611971 L 250.06872,17.5 226.70696,41 c -23.84536,23.98646 -35.37501,37.11005 -34.2302,38.962397 0.79969,1.293918 62.42884,1.339565 101.49466,0.07517 15.10928,-0.489021 28.06562,-0.556593 28.79188,-0.150159 1.5905,0.890089 -7.99157,14.825915 -16.71725,24.313002 l -5.60044,6.08912 -39.97281,0.79553 c -21.98504,0.43755 -51.4478,0.82929 -65.4728,0.87055 -14.025,0.0413 -26.00612,0.40562 -26.62472,0.8097 -2.76313,1.80493 -17.52017,34.37101 -24.13813,53.26843 C 135.06176,192.23383 131,215.64421 131,242.32745 c 0,50.41882 12.46595,76.18227 44.08875,91.11849 12.70184,5.99939 18.21899,7.0159 37.91125,6.985 16.39903,-0.0257 17.98964,-0.19768 25.28278,-2.73314 17.58323,-6.11279 28.47215,-12.86883 53.21722,-33.01866 9.9,-8.06155 18.53909,-14.66225 19.19798,-14.66825 0.86285,-0.008 0.94156,0.75842 0.28137,2.73911 -9.11608,27.34984 -19.91604,57.2931 -22.39023,62.07766 -1.17917,2.28027 -2.41972,3.04954 -5.78574,3.58779 -6.6836,1.06875 -43.25981,2.52669 -64.80338,2.58308 -10.725,0.0281 -27.375,0.47005 -37,0.98217 -35.96941,1.91381 -46.22701,2.03041 -53.5,0.60814 z m 565.61817,-1.49465 c -0.95464,-0.60461 -1.19022,-1.91379 -0.76202,-4.23468 5.27047,-28.5667 6.92548,-188.07253 2.22417,-214.35951 -4.08605,-22.84679 -9.04869,-33.02234 -22.85427,-46.861101 -8.12979,-8.149335 -9.78439,-10.319181 -9.53175,-12.5 L 662.5,80.5 l 33,-0.686435 c 18.15,-0.37754 42,-1.138211 53,-1.690381 11,-0.55217 20.34982,-0.658458 20.77737,-0.236196 0.42755,0.422262 -0.57409,6.302186 -2.22588,13.066497 -1.65178,6.764311 -3.47417,16.854495 -4.04975,22.422635 -1.60329,15.51012 -3.22724,107.20394 -2.5348,143.12388 1.10576,57.36114 3.38175,74.11459 12.83801,94.5 l 2.5513,5.5 -3.67812,0.62434 c -2.02297,0.34339 -13.57813,0.93499 -25.67813,1.31467 -12.1,0.37967 -28.75,1.33489 -37,2.12269 -8.25,0.78781 -15,1.42682 -15,1.42003 0,-0.007 -0.62183,-0.40619 -1.38183,-0.88754 z M 714.76339,55.018645 c -11.13693,-1.996251 -23.71907,-7.495172 -26.35512,-11.518293 -3.58571,-5.472485 -0.57303,-34.8813015 4.13178,-40.3330324 2.26339,-2.62273032 2.49962,-2.66557008 14.13091,-2.56266402 18.65421,0.16504018 42.95213,6.83809082 46.91363,12.88410642 1.68779,2.575885 1.65777,3.158773 -0.80354,15.604243 -2.71345,13.720353 -6.22806,22.468039 -9.99096,24.866981 -2.69187,1.716129 -20.58751,2.392105 -28.0267,1.058659 z"
       id="path2993"
       inkscape:connector-curvature="0" />
    <path
       style="fill:#2e2e2e"
       d="m 396.5,366.41473 c -1.1,-0.28481 -2.9,-0.91219 -4,-1.39418 -1.1,-0.482 -5.0107,-1.83657 -8.69044,-3.01017 -24.39505,-7.78039 -38.79352,-30.26767 -40.50527,-63.26038 l -0.60962,-11.75 4.90266,-0.0101 c 14.00325,-0.0288 55.03017,-2.199 62.65058,-3.31406 5.84408,-0.85513 9.08056,-0.94739 9.75,-0.27795 0.56333,0.56333 1.00209,6.51459 1.00209,13.59199 0,8.10176 0.54983,14.7146 1.54234,18.55 4.23459,16.36377 19.6349,31.39663 36.45766,35.58779 8.90666,2.21898 27.84997,1.72385 38,-0.99322 17.01908,-4.55584 32.5761,-13.48808 44.5024,-25.55154 11.84082,-11.977 18.00897,-23.0305 21.15191,-37.90483 2.79009,-13.20441 -1.09946,-26.53319 -10.85894,-37.21162 -5.95612,-6.51694 -10.87985,-9.59399 -20.69201,-12.93133 -10.0842,-3.42985 -21.51426,-4.37165 -61.60336,-5.0759 -62.71052,-1.10165 -69.61861,-1.99538 -89.3209,-11.55583 -13.17688,-6.39403 -21.10152,-13.92073 -26.803,-25.45706 -3.86917,-7.82885 -3.876,-7.86443 -3.81773,-19.89462 0.0662,-13.66475 2.00537,-21.74668 8.16004,-34.00867 C 373.73957,108.624 401.85542,90.131204 442,85.108061 c 13.73753,-1.718927 58.79879,-3.333644 97,-3.475881 33.8352,-0.125981 35.87842,-0.02783 43.56951,2.093027 19.69734,5.431641 34.07187,15.241832 42.95711,29.316963 5.22872,8.28283 11.7,30.31892 10.11594,34.44693 -0.46218,1.20442 -2.56391,1.51284 -10.36118,1.52046 -16.64109,0.0163 -48.35458,1.95868 -57.28138,3.50841 -13.72908,2.38343 -12.5,3.49274 -12.5,-11.28185 0,-12.39756 -0.094,-12.95534 -3.27411,-19.42183 -5.52639,-11.23753 -17.89965,-20.61444 -32.33879,-24.507513 -9.21445,-2.484395 -30.68525,-2.213386 -40.98049,0.517265 -19.99256,5.302708 -39.94008,18.553868 -49.07991,32.603828 -7.29425,11.2129 -9.74366,25.75402 -6.29459,37.36832 2.24841,7.5712 10.60768,16.23393 20.04579,20.77347 9.4577,4.54898 23.98669,8.20065 36.66322,9.21485 5.53693,0.44298 23.61028,0.40324 40.16301,-0.0883 44.35708,-1.31726 63.06332,1.01938 82.42295,10.29566 21.46166,10.28348 31.36369,28.12039 31.3701,56.50816 0.003,14.74428 -1.54151,23.95998 -6.10887,36.44252 -5.12875,14.01678 -10.06965,21.26324 -23.97636,35.16437 -11.46992,11.46531 -13.47219,13.02285 -22.11195,17.20065 -11.55027,5.58517 -20.44977,8.13556 -37.47725,10.74011 -11.68647,1.78757 -19.59396,2.02976 -79.5,2.43496 -36.58751,0.24747 -67.42275,0.21692 -68.52275,-0.0679 z m -274.13796,-5.39617 c -26.001507,-6.81667 -43.424363,-27.59414 -51.94902,-61.95133 -5.429755,-21.88372 -5.837277,-63.04376 -0.909749,-91.88537 5.066924,-29.65752 12.766633,-56.67696 22.935907,-80.48557 5.006836,-11.72216 5.3176,-13.19191 2.979035,-14.0893 C 94.548229,112.27314 73.360729,112 48.334879,112 18.643316,112 2.9491534,111.65481 3.1666667,111.00654 3.35,110.46014 8.8648593,103.71014 15.421909,96.006544 L 27.343819,82 70.421909,81.98469 c 23.69295,-0.0084 43.548391,-0.345922 44.123211,-0.75 0.57482,-0.404078 3.59707,-4.784687 6.71612,-9.734687 7.20983,-11.44217 15.01834,-21.767891 25.62846,-33.890261 13.68978,-15.64096 8.72343,-14.022999 52.17946,-16.999285 20.58696,-1.409992 40.24334,-2.811692 43.68084,-3.114888 3.4375,-0.303196 6.25,-0.340929 6.25,-0.08385 0,0.257078 -9.5924,10.05711 -21.31644,21.77785 C 205.88473,60.982258 192,76.56894 192,79.247132 c 0,0.883212 1.28849,1.760565 3.125,2.127868 4.73341,0.946682 36.58128,0.760745 84.17045,-0.491413 23.53749,-0.619314 43.07574,-0.84573 43.41832,-0.503146 1.44717,1.447166 -19.90542,28.403379 -23.06595,29.119209 -1.1813,0.26756 -31.0972,0.93583 -66.47978,1.48505 -35.38257,0.54921 -64.80942,1.29366 -65.39299,1.65433 -1.54435,0.95446 -13.70101,26.75396 -19.70377,41.81637 -13.14219,32.97703 -19.13146,65.6627 -17.69067,96.5446 2.10727,45.16721 13.94647,67.68017 43.15969,82.07079 13.0738,6.44024 20.24508,7.89384 38.9597,7.89707 18.15948,0.003 24.23093,-1.25763 38.21881,-7.93623 12.94013,-6.17835 23.66066,-13.55565 43.74409,-30.10238 8.7796,-7.2335 16.10643,-12.72125 16.28185,-12.195 0.59234,1.77701 -20.75953,61.53612 -23.1595,64.81827 -2.01399,2.7543 -8.63646,3.27493 -56.08525,4.40914 -24.2,0.57848 -51.425,1.4944 -60.5,2.03538 -25.3744,1.51264 -40.2796,1.21278 -48.63796,-0.97848 z m 570.64019,-1.62096 c 10e-4,-1.04368 0.6591,-8.42262 1.46194,-16.39765 0.80284,-7.97502 1.92582,-25.07502 2.4955,-38 1.32601,-30.08462 1.32012,-123.92328 -0.009,-143.49995 -2.32925,-34.30729 -8.75095,-50.92503 -26.14406,-67.654143 -6.53326,-6.283853 -7.89963,-8.122027 -7.63226,-10.267645 l 0.32567,-2.613503 25,-0.408359 c 13.75,-0.224598 37.27093,-0.958228 52.26873,-1.63029 14.9978,-0.672062 27.57454,-0.916124 27.9483,-0.542361 0.37377,0.373764 -0.53571,5.727835 -2.02105,11.897936 -1.48535,6.170101 -3.17264,14.593365 -3.74955,18.718365 -1.60743,11.49348 -2.87234,63.12039 -2.89111,118 -0.018,52.63594 0.96856,79.12963 3.48503,93.58854 1.74015,9.99831 7.51341,28.14434 10.48299,32.94922 l 1.9518,3.15809 -11.23757,0.64752 c -6.18066,0.35615 -16.18757,0.66563 -22.23757,0.68776 -6.05,0.0221 -15.5,0.45748 -21,0.96747 -26.21147,2.43048 -28.50019,2.46252 -28.49777,0.399 z M 719.5,55.023424 c -9.47762,-1.073686 -14.69125,-2.559493 -23.17256,-6.603831 -6.2304,-2.970988 -7.33185,-3.902939 -8.3853,-7.094902 -2.30159,-6.973894 0.91519,-32.5303331 4.7535,-37.7652302 2.38437,-3.25192509 7.83251,-4.04478036 19.00787,-2.76617193 17.12711,1.95956603 35.50029,7.19203263 40.02993,11.40005813 2.27687,2.115212 2.43603,2.820681 1.91766,8.500116 -0.82492,9.037988 -4.37112,23.200078 -6.9628,27.806537 -1.23776,2.2 -3.36148,4.522984 -4.71939,5.162187 -3.49033,1.642998 -14.23548,2.293973 -22.46891,1.361237 z"
       id="path2991"
       inkscape:connector-curvature="0" />
    <path
       style="fill:#000000"
       d="m 396.73305,366.28211 c -1.52183,-0.23002 -2.54988,-0.76947 -2.28456,-1.19877 0.26533,-0.4293 -1.91614,-1.31732 -4.8477,-1.97337 -9.91375,-2.2186 -19.27511,-7.5509 -27.01667,-15.38888 -11.75622,-11.90266 -17.30779,-26.42077 -18.30772,-47.87721 l -0.5432,-11.65612 6.3834,-0.55468 c 3.51087,-0.30508 15.53177,-0.79249 26.71312,-1.08313 11.18134,-0.29065 24.45634,-1.05121 29.5,-1.69013 5.04365,-0.63892 10.07028,-1.20626 11.17028,-1.26075 1.88634,-0.0934 2.03446,0.72495 2.60629,14.40093 0.84946,20.31531 2.43912,25.12058 12.32516,37.25674 11.51765,14.13912 29.99461,20.37274 52.46548,17.70042 30.55437,-3.63364 58.75441,-22.38489 71.98907,-47.86822 5.52668,-10.6416 7.40969,-18.6101 6.91185,-29.24945 -0.35155,-7.51303 -0.89449,-9.65043 -4.09775,-16.1318 -7.10175,-14.3694 -20.55715,-23.62599 -38.79748,-26.69057 -3.52144,-0.59164 -23.72762,-1.49061 -44.90262,-1.99771 -59.60291,-1.42738 -66.47086,-1.81039 -75.5,-4.21049 -27.01156,-7.18014 -43.61908,-20.47742 -49.04326,-39.26789 -1.34809,-4.67004 -1.6005,-8.23902 -1.16696,-16.5 0.64418,-12.27469 2.26883,-18.22714 8.29797,-30.40245 14.99439,-30.2798 40.77416,-47.998265 78.77935,-54.145147 16.03593,-2.593619 111.60085,-5.791497 129.63529,-4.337972 11.59198,0.934282 25.14174,4.732298 34.46656,9.661028 10.2038,5.39332 21.27127,16.613041 25.82821,26.183511 3.84433,8.07386 7.70284,21.38927 7.70284,26.58188 l 0,3.20521 -16.75,0.60865 c -24.25618,0.88139 -46.65448,2.52015 -55.13966,4.03426 l -7.38966,1.31863 0.58985,-8.35825 c 0.73922,-10.47496 -0.49486,-18.24953 -3.99487,-25.16719 -5.52644,-10.92281 -20.84036,-21.528724 -35.04735,-24.272623 -9.77309,-1.88755 -33.04562,-0.750604 -41.76831,2.040532 -21.97918,7.033021 -42.33678,22.447441 -49.45227,37.444391 -9.96024,20.9927 -4.44563,41.8528 13.77516,52.10721 6.93367,3.90218 20.45072,8.17202 31.71994,10.01988 8.56454,1.40436 15.34188,1.53784 48.45717,0.95438 41.72487,-0.73516 49.65332,-0.24793 65.96438,4.05372 14.61752,3.85501 23.31153,8.49144 31.55742,16.82925 12.10035,12.23524 15.87954,23.11649 15.83745,45.60007 -0.0301,16.06298 -1.39092,23.96838 -6.32492,36.74252 -5.16687,13.37704 -9.65973,19.88496 -23.02993,33.35894 -11.37593,11.46422 -13.36174,13.01971 -22.0044,17.23611 -15.33685,7.48222 -32.20479,11.47871 -49.82236,11.80434 -6.03466,0.11153 -6.82166,0.27722 -3.67764,0.77425 2.2,0.34779 -13.7362,0.95894 -35.41378,1.3581 -40.50184,0.74578 -91.44364,0.74993 -96.35317,0.008 z M 131.16124,361.97063 C 99.198619,357.5895 79.178508,335.18132 69.731798,293.21367 67.741352,284.37098 67.54396,280.72038 67.53036,252.5 67.516952,224.67717 67.745538,220.22986 69.760697,209.10709 75.487931,177.49534 81.38538,156.1545 90.640624,133.54982 94.254909,124.72242 97.27684,116.375 97.356026,115 c 0.171317,-2.97479 3.942704,-2.71302 -54.580967,-3.78841 L 4.0501177,110.5 15.775059,96.750027 27.5,83.000053 l 43.05887,-2.6e-5 c 32.96849,-2.1e-5 43.41561,-0.292951 44.58121,-1.250027 0.83728,-0.6875 3.72405,-4.85 6.41503,-9.25 7.66991,-12.540974 19.00548,-27.088892 29.73349,-38.159572 9.79856,-10.111537 9.87198,-10.162406 15.52825,-10.758806 10.67856,-1.125952 79.4437,-5.654406 79.84031,-5.257796 0.21761,0.217608 -8.98591,9.796269 -20.45225,21.285912 C 203.57346,62.287172 191,76.611806 191,79.717826 c 0,1.857095 0.92946,2.007184 15.75,2.543312 8.6625,0.313363 32.4,0.177398 52.75,-0.302145 20.35,-0.479542 42.78169,-0.891492 49.8482,-0.915444 L 322.1964,81 l -1.95018,3.080103 c -3.8176,6.029483 -18.36772,23.752857 -20.04267,24.413797 -0.93695,0.36973 -30.50355,1.10592 -65.70355,1.63598 -35.2,0.53006 -64.95233,1.16115 -66.11628,1.40242 -1.62456,0.33675 -3.87504,4.21775 -9.68571,16.70319 -23.21664,49.88585 -31.19951,85.42589 -28.67264,127.65174 2.41099,40.28948 13.84124,62.14479 39.97463,76.4338 3.575,1.95471 10.1,4.80757 14.5,6.33969 7.6803,2.67436 8.77927,2.78663 27.5,2.80956 18.86408,0.0231 19.76043,-0.0681 27.48599,-2.79536 16.99168,-5.99843 29.32534,-13.76455 54.01679,-34.01272 8.61022,-7.06079 15.82183,-12.67092 16.0258,-12.46695 0.64334,0.64334 -18.33639,54.4586 -21.63084,61.33224 -1.07989,2.25311 -2.34301,3.11552 -5.40354,3.68931 -2.19681,0.41186 -20.8692,1.19178 -41.4942,1.73314 -34.83258,0.91428 -80.0992,2.55098 -96.5,3.48913 -3.85,0.22023 -9.85244,0.009 -13.33876,-0.46844 z M 693.39285,358.25 c 0.2902,-0.9625 1.24193,-9.38637 2.11496,-18.71971 2.0992,-22.44201 3.43873,-65.45515 3.45775,-111.03029 0.039,-93.56341 -3.68717,-111.78204 -27.6656,-135.266378 -5.39122,-5.280124 -8.32022,-8.892655 -8.1079,-10 0.3042,-1.586523 3.04659,-1.78499 32.32017,-2.339013 17.59327,-0.332966 41.29355,-0.964945 52.66728,-1.404398 l 20.67951,-0.799005 -2.89709,11.463722 c -1.59339,6.305047 -3.36488,15.487022 -3.93664,20.404392 -2.98868,25.70391 -3.73367,165.87878 -1.03797,195.30101 1.58229,17.26996 4.74194,30.31392 11.10667,45.8515 0.72362,1.76651 1.00554,3.52197 0.62649,3.90102 -0.37905,0.37905 -11.83372,1.06431 -25.45483,1.52281 -13.62111,0.45849 -28.91041,1.29053 -33.97624,1.84898 C 708.22359,359.54309 701.55577,360 698.47203,360 c -4.87415,0 -5.53786,-0.22868 -5.07918,-1.75 z M 774,355.5 c 0,-0.825 0.17686,-1.5 0.39301,-1.5 0.21616,0 0.65203,0.675 0.96862,1.5 0.31658,0.825 0.13972,1.5 -0.39301,1.5 C 774.43588,357 774,356.325 774,355.5 z M 716.3872,54.062969 c -10.69999,-1.697449 -24.04058,-7.302317 -26.81759,-11.267046 -3.02825,-4.323431 -0.84583,-31.673033 2.9952,-37.5351861 0.8071,-1.2317806 1.34769,-2.5634088 1.20132,-2.9591737 -0.5334,-1.44223253 6.95842,-2.16938732 16.23242,-1.57551517 5.2242,0.33453847 8.8242,0.83662537 8,1.11574877 -0.8242,0.2791233 1.91167,1.0868318 6.07972,1.7949078 11.84399,2.0120798 23.88077,6.1684894 27.05442,9.3421374 3.13116,3.131159 3.12666,3.520041 -0.22405,19.392055 -2.25624,10.687598 -5.88904,19.013062 -9.02974,20.693913 -2.80734,1.502442 -18.45155,2.11501 -25.4917,0.998159 z"
       id="path2989"
       inkscape:connector-curvature="0" />
  </g>
</svg>
